<svg>
  <symbol id="eye" xmlns="http://www.w3.org/2000/svg" fill="none" viewBox="0 0 20 20"><path fill="currentColor" d="M19.77 9.15A11.32 11.32 0 0 0 10 3.61c-4.16 0-7.81 2.22-9.77 5.54a1.67 1.67 0 0 0 0 1.7A11.32 11.32 0 0 0 10 16.39c4.16 0 7.81-2.22 9.77-5.54a1.67 1.67 0 0 0 0-1.7ZM10 14.72A9.65 9.65 0 0 1 1.67 10a9.64 9.64 0 0 1 7.5-4.69 1.94 1.94 0 0 1-1.4 3.3 1.94 1.94 0 0 1-1.94-1.94 4.72 4.72 0 1 0 7.92-.64A9.6 9.6 0 0 1 18.33 10 9.65 9.65 0 0 1 10 14.72Z"/></symbol>

  <symbol id="star" xmlns="http://www.w3.org/2000/svg" fill="none" viewBox="0 0 20 20"><path fill="currentColor" d="m18.34 7.07-5.08-.74L11 1.73a1.11 1.11 0 0 0-2 0l-2.26 4.6-5.08.74a1.11 1.11 0 0 0-.61 1.9l3.67 3.57-.87 5.05c-.16.91.8 1.6 1.61 1.17L10 16.37l4.54 2.39c.8.42 1.77-.26 1.6-1.17l-.86-5.05 3.67-3.58c.66-.64.3-1.76-.61-1.9Zm-4.85 4.88.83 4.81L10 14.49l-4.32 2.27.83-4.8L3 8.55l4.83-.7L10 3.47l2.16 4.37 4.83.7-3.5 3.4Z"/></symbol>

  <symbol id="compare" xmlns="http://www.w3.org/2000/svg" fill="none" viewBox="0 0 20 20"><path fill="currentColor" d="M8.9 15H7.2V1.87a.62.62 0 0 0-.63-.62h-.62a.62.62 0 0 0-.63.63V15H3.6a.47.47 0 0 0-.34.8l2.66 2.8a.47.47 0 0 0 .68 0l2.66-2.8a.47.47 0 0 0-.34-.8Zm7.85-10.8-2.66-2.8a.47.47 0 0 0-.68 0l-2.66 2.8a.47.47 0 0 0 .34.8h1.72v13.13a.62.62 0 0 0 .63.62h.62a.62.62 0 0 0 .63-.63V5h1.72a.47.47 0 0 0 .34-.8Z"/></symbol>

  <symbol id="question" xmlns="http://www.w3.org/2000/svg" fill="none" viewBox="0 0 20 20"><path fill="currentColor" d="M10 13.28a1.1 1.1 0 1 0 0 2.19 1.1 1.1 0 0 0 0-2.19Zm.3-.94h-.63a.47.47 0 0 1-.46-.46v-.02c0-2.75 3.02-2.48 3.02-4.2 0-.78-.7-1.57-2.24-1.57-1.14 0-1.73.38-2.32 1.12a.47.47 0 0 1-.63.1l-.51-.36a.47.47 0 0 1-.1-.67 4.1 4.1 0 0 1 3.56-1.75c2.04 0 3.8 1.16 3.8 3.13 0 2.64-3.02 2.5-3.02 4.2v.02c0 .25-.21.46-.47.46ZM10 1.56a8.44 8.44 0 1 1 0 16.88 8.44 8.44 0 0 1 0-16.88Zm0-1.25a9.69 9.69 0 1 0 0 19.38A9.69 9.69 0 0 0 10 .31Z"/></symbol>

  <symbol id="share" xmlns="http://www.w3.org/2000/svg" fill="none" viewBox="0 0 20 20"><path fill="currentColor" d="M15 12.5c1.04 0 1.93.36 2.66 1.1.73.72 1.09 1.6 1.09 2.65 0 1.04-.36 1.93-1.1 2.66A3.62 3.62 0 0 1 15 20a3.62 3.62 0 0 1-2.66-1.1 3.62 3.62 0 0 1-1.09-2.65c0-.4.05-.77.16-1.13l-3.83-2.39A3.66 3.66 0 0 1 5 13.75a3.62 3.62 0 0 1-2.66-1.1A3.62 3.62 0 0 1 1.25 10c0-1.04.36-1.93 1.1-2.66A3.62 3.62 0 0 1 5 6.25c.99 0 1.85.34 2.58 1.02l3.83-2.39a4.1 4.1 0 0 1-.16-1.13c0-1.04.36-1.93 1.1-2.66A3.62 3.62 0 0 1 15 0c1.04 0 1.93.36 2.66 1.1.73.72 1.09 1.6 1.09 2.65 0 1.04-.36 1.93-1.1 2.66A3.62 3.62 0 0 1 15 7.5c-.99 0-1.85-.34-2.58-1.02L8.6 8.87c.24.75.24 1.5 0 2.26l3.83 2.39A3.66 3.66 0 0 1 15 12.5Zm1.33-10.08A1.8 1.8 0 0 0 15 1.88c-.52 0-.96.18-1.33.54-.36.37-.54.8-.54 1.33 0 .52.18.96.54 1.33.37.36.8.54 1.33.54.52 0 .96-.18 1.33-.54.36-.37.55-.8.55-1.33 0-.52-.19-.96-.55-1.33Zm-12.66 8.9c.37.37.8.55 1.33.55.52 0 .96-.18 1.33-.54.36-.37.54-.8.54-1.33 0-.52-.18-.96-.54-1.33A1.8 1.8 0 0 0 5 8.13c-.52 0-.96.18-1.33.54-.36.37-.54.8-.54 1.33 0 .52.18.96.54 1.33Zm10 6.26c.37.36.8.55 1.33.55.52 0 .96-.19 1.33-.55.36-.37.55-.8.55-1.33 0-.52-.19-.96-.55-1.33a1.8 1.8 0 0 0-1.33-.54c-.52 0-.96.18-1.33.54-.36.37-.54.8-.54 1.33 0 .52.18.96.54 1.33Z"/></symbol>

  <symbol id="delivery" xmlns="http://www.w3.org/2000/svg" fill="none" viewBox="0 0 20 20"><path fill="currentColor" d="M8.75 8c.14 0 .25-.11.25-.25v-.5A.25.25 0 0 0 8.75 7h-7.5a.25.25 0 0 0-.25.25v.5c0 .14.11.25.25.25h7.5Zm11 6H19v-3.38a2 2 0 0 0-.59-1.41L15.8 6.59A2 2 0 0 0 14.38 6H13V4.46c0-.8-.7-1.46-1.54-1.46H3.54C2.7 3 2 3.65 2 4.46V5H.25a.25.25 0 0 0-.25.25v.5c0 .14.11.25.25.25h7.5c.14 0 .25-.11.25-.25v-.5A.25.25 0 0 0 7.75 5H3v-.54c0-.26.24-.46.54-.46h7.92c.3 0 .54.2.54.46V14H6.49A2.46 2.46 0 0 0 3 13.51V11H2v4.5a2.5 2.5 0 1 0 4.95-.5h6.1a2.5 2.5 0 1 0 4.9 0h1.8c.14 0 .25-.11.25-.25v-.5a.25.25 0 0 0-.25-.25ZM4.5 17a1.5 1.5 0 1 1 0-3 1.5 1.5 0 0 1 0 3ZM13 7h1.38a1 1 0 0 1 .7.3l2.63 2.62.05.08H13V7Zm2.5 10a1.5 1.5 0 1 1 0-3 1.5 1.5 0 0 1 0 3Zm2.5-3h-.51a2.5 2.5 0 0 0-1.99-1c-.81 0-1.53.4-1.99 1H13v-3h5v3ZM8 9.75v-.5A.25.25 0 0 0 7.75 9H.25a.25.25 0 0 0-.25.25v.5c0 .14.11.25.25.25h7.5c.14 0 .25-.11.25-.25Z"/></symbol>

  <symbol id="shipping" xmlns="http://www.w3.org/2000/svg" fill="none" viewBox="0 0 20 20"><path fill="currentColor" d="m17.92 7.77-1.58-4.75A1.5 1.5 0 0 0 14.92 2H5.08a1.5 1.5 0 0 0-1.42 1.02L2.08 7.78c-.05.15-.08.31-.08.47v8.26c0 .83.67 1.5 1.5 1.5h13c.83 0 1.5-.67 1.5-1.5V8.24c0-.16-.02-.32-.08-.47ZM3 8.24c0-.05 0-.1.02-.16l1.59-4.74A.5.5 0 0 1 5.08 3H9.5v5.25H3Zm14 8.26a.5.5 0 0 1-.5.5h-13a.5.5 0 0 1-.5-.5V9.25h14v7.25Zm0-8.25h-6.5V3h4.42c.21 0 .4.14.47.34l1.59 4.74.02.16v.01Z"/></symbol>

  <symbol id="chevron-left" xmlns="http://www.w3.org/2000/svg" fill="none" viewBox="0 0 20 20"><path stroke="currentColor" stroke-linecap="round" stroke-linejoin="round" stroke-width="1.8" d="m13.5 17-7-7 7-7"/></symbol>

  <symbol id="chevron-right" xmlns="http://www.w3.org/2000/svg" fill="none" viewBox="0 0 20 20"><path stroke="currentColor" stroke-linecap="round" stroke-linejoin="round" stroke-width="1.8" d="m6.5 3 7 7-7 7"/></symbol>

  <symbol id="chevron-down" xmlns="http://www.w3.org/2000/svg" fill="none" viewBox="0 0 20 20"><path stroke="currentColor" stroke-linecap="round" stroke-linejoin="round" stroke-width="1.8" d="m17 6.5-7 7-7-7"/></symbol>

  <symbol id="check" xmlns="http://www.w3.org/2000/svg" viewBox="0 0 24 24"><path fill="currentColor" d="M21.55 5.11a1.5 1.5 0 0 1 0 2.12L10.3 18.48a1.6 1.6 0 0 1-2.26 0l-5.59-5.59a1.5 1.5 0 1 1 2.13-2.12l4.6 4.6L19.41 5.1a1.5 1.5 0 0 1 2.13 0"/></symbol>

  <symbol id="arrow-up" xmlns="http://www.w3.org/2000/svg" fill="none" viewBox="0 0 17 26"><path fill="currentColor" fill-rule="evenodd" d="M8.5 26c-.25 0-.5-.1-.67-.27a.92.92 0 0 1-.27-.66V3.17L1.6 9.02a.95.95 0 0 1-1.33 0 .92.92 0 0 1 0-1.32L7.83.27a.95.95 0 0 1 1.03-.2c.12.05.22.12.3.2l7.56 7.43a.92.92 0 0 1 0 1.32.95.95 0 0 1-1.33 0L9.44 3.17v21.9c0 .25-.1.48-.27.66a.95.95 0 0 1-.67.27Z"/></symbol>

  <symbol id="cart" xmlns="http://www.w3.org/2000/svg" fill="none" viewBox="0 0 20 20"><path fill="currentColor" d="M15 5A5 5 0 0 0 5 5H1.25v11.88c0 1.72 1.4 3.12 3.13 3.12h11.25c1.72 0 3.12-1.4 3.12-3.13V5H15Zm-5-3.13c1.72 0 3.13 1.4 3.13 3.13H6.87c0-1.72 1.4-3.13 3.13-3.13Zm6.88 15c0 .7-.57 1.25-1.25 1.25H4.37c-.68 0-1.25-.56-1.25-1.25v-10H5v1.57a.94.94 0 1 0 1.88 0V6.88h6.25v1.56a.94.94 0 1 0 1.87 0V6.88h1.88v10Z"/></symbol>

  <symbol id="menu" xmlns="http://www.w3.org/2000/svg" viewBox="0 0 20 20"><path fill="currentColor" d="M0 3h20v2H0zm0 6h20v2H0zm0 6h20v2H0z"/></symbol>

  <symbol id="close" xmlns="http://www.w3.org/2000/svg" fill="none" viewBox="0 0 24 24"><path stroke="currentColor" stroke-linecap="round" stroke-width="2" d="M20 20 4 4m16 0L4 20"/></symbol>
</svg>