<svg>
  <symbol id="chanel" xmlns="http://www.w3.org/2000/svg" viewBox="0 0 577.15 91.58"><path d="M247.68 1.94h-11.09L198.22 90h18.07l8.57-19.51h45.64L279.07 90h18l-38.3-88.06h-11.09zm0 51.12h-15.34l15.34-34.84.07-.15 15.27 35h-15.34zm193.53 1.66h40.04V37.37H441.2V18.36h44.86V1.94h-63.86V90h68.54V73.58h-49.53V54.72zm90.73 18.86V1.94h-19.01V90h64.22V73.73l-45.21-.15zm-368-39.88h-40.53V1.94H104.4V90h19V52.56h40.54V90h19.01V2.09h-19v31.6zm212.9 23.04L337.83 2.09l-6.84-.15h-15.26V90h15.26V25.7L376.85 90h16.34V2.09h-16.34v54.65zm-309.3 4.75-2.3 2.73-2.45 2.45-3.03 2.02-3.17 1.73-3.38 1.22-3.67.72-3.75.29-2.59-.07-2.66-.44-2.52-.57-2.45-.94-2.45-1.15-2.16-1.37-2.16-1.58-1.94-1.73-1.8-2.02-1.59-2.08-1.37-2.24-1.15-2.37-.79-2.45-.65-2.6-.36-2.58-.14-2.67.14-2.66.36-2.6.65-2.51.8-2.38 1.14-2.38 1.37-2.3 1.59-2.16 1.8-1.94 1.94-1.8 2.16-1.52 2.16-1.36 2.45-1.08 2.45-.94 2.52-.58 2.66-.43 2.6-.14 2.73.14 2.59.43 2.52.58 2.52.94 2.23 1.08 2.3 1.36 2.17 1.52 1.94 1.8 2.16 2.52 1.8 2.59 17-8.64-1.6-2.6-1.86-2.51-1.88-2.38-2.16-2.38-3.45-3.1-3.53-2.58-3.89-2.3-4.1-1.95-4.03-1.44L54.79.94 50.33.22 45.79 0l-4.68.22-4.53.79-4.32 1.08L28 3.67l-3.96 1.95-3.89 2.23-3.53 2.66-3.17 2.95-2.95 3.32-2.66 3.52-2.38 3.75L3.67 28 2.1 32.26.94 36.65l-.72 4.54-.22 4.6.22 4.61.72 4.4 1 4.31 1.52 4.25 1.94 3.96 2.23 3.89 2.74 3.6 3.1 3.31 3.3 3.1 3.6 2.73 3.9 2.3 3.95 1.88 4.25 1.51 4.32 1.15 4.47.58 4.53.21 4.54-.21 4.46-.58 4.47-1.15 4.03-1.51 4.1-1.87 3.89-2.3 3.53-2.74 3.45-3.1 2.38-2.45 2.16-2.73 1.95-2.88 1.65-2.96-16.92-8.64-1.94 3.03z"/></symbol>

  <symbol id="louis-vuitton" xmlns="http://www.w3.org/2000/svg" viewBox="-31.05 -31.05 10164.6 1097.1"><path d="M10102.5 61.25v962.5l-660-690V967.5H9305V0l661.25 691.25v-630h136.25m-1525-18.75s-133.75 1.24-241.25 65c0 0-107.5 62.5-170 170 0 0-63.75 106.25-65 240 0 0 1.25 132.5 63.75 237.5 0 0 63.75 105 170 166.25 0 0 107.5 62.5 242.5 63.75 0 0 131.25-1.25 237.5-65 0 0 106.25-62.5 168.75-168.75 0 0 63.75-106.25 65-237.5 0 0-1.25-131.25-65-237.5 0 0-62.5-106.25-168.75-168.75 0 0-106.25-63.76-237.5-65zm-1.25 128.75s96.25 1.25 171.25 46.25c0 0 75 45 118.75 121.25 0 0 45 77.5 45 176.25 0 0-1.25 95-45 172.5 0 0-45 76.25-121.25 121.25 0 0-75 46.25-168.75 46.25 0 0-95-1.25-171.25-45 0 0-76.25-45-121.25-121.25 0 0-43.75-77.5-45-173.75 0 0 1.25-97.5 45-175 0 0 43.75-77.5 120-122.5 0 0 76.25-45 172.5-46.25zm-807.5 17.5V967.5h-137.5V188.75h-207.5V60h553.75v128.75h-208.75m-473.75 0h-208.75V967.5h-137.5V188.75h-207.5V60H7295v128.75M6506.25 60v907.5h-137.5V60h137.5m-457.5 0v583.75s-1.25 98.75-43.75 175c0 0-43.75 76.25-118.75 121.25 0 0-75 43.75-171.25 45 0 0-97.5-1.25-173.75-45 0 0-75-45-118.75-121.25 0 0-42.5-76.25-43.75-175V60h137.5v546.25s0 58.75 6.25 93.75c0 0 6.25 35 22.5 62.5 0 0 25 43.75 70 67.5 0 0 45 25 100 25 0 0 53.75 0 98.75-25 0 0 43.75-23.75 70-67.5 0 0 16.25-27.5 22.5-62.5l5-93.75V60h137.5M4360 60h150l250 628.75L5013.75 60h150l-406.25 975L4360 60m-797.5 130s-30-18.75-76.25-18.75c0 0-57.5 1.25-93.75 32.5 0 0-36.25 31.25-37.5 80 0 0-1.25 46.25 42.5 76.25l22.5 15 35 16.25 88.75 36.25s108.75 45 160 108.75c0 0 52.5 65 51.25 155 0 0 0 85-37.5 151.25 0 0-36.25 65-101.25 103.75 0 0-65 37.5-147.5 38.75 0 0-122.5-1.25-198.75-70 0 0-76.25-70-95-197.5l138.75-32.5 10 61.25S3330 768.75 3340 785c0 0 17.5 32.5 52.5 51.25 0 0 35 18.75 77.5 18.75 0 0 65-1.25 106.25-42.5 0 0 41.25-41.25 42.5-107.5 0 0-1.25-77.5-62.5-120 0 0-32.5-21.25-67.5-35l-86.25-37.5S3215 435 3216.25 283.75c0 0 0-70 36.25-123.75 0 0 35-53.75 96.25-85 0 0 61.25-31.25 138.75-32.5 0 0 81.25 0 140 36.25 0 0 60 36.25 105 116.25l-110 66.25s-30-51.25-60-71.25M2901.25 60v907.5h-137.5V60h137.5m-595 0h137.5v583.75s-1.25 98.75-43.75 175c0 0-43.75 76.25-118.75 121.25 0 0-75 43.75-171.25 45 0 0-97.5-1.25-173.75-45 0 0-75-45-118.75-121.25 0 0-42.5-76.25-43.75-175V60h137.5v546.25s0 58.75 6.25 93.75c0 0 6.25 35 22.5 62.5 0 0 25 43.75 70 67.5 0 0 45 25 100 25 0 0 53.75 0 98.75-25 0 0 43.75-23.75 70-67.5 0 0 16.25-27.5 22.5-62.5l5-93.75V60m-1277.5-17.5S895 43.73 787.5 107.5c0 0-107.5 62.5-170 170 0 0-63.75 106.25-65 240 0 0 1.25 132.5 63.75 237.5 0 0 63.75 105 170 166.25 0 0 107.5 62.5 242.5 63.75 0 0 131.25-1.25 237.5-65 0 0 106.25-62.5 168.75-168.75 0 0 63.75-106.25 65-237.5 0 0-1.25-131.25-65-237.5 0 0-62.5-106.25-168.75-168.75 0 0-106.25-63.76-237.5-65zm-1.25 128.75s96.25 1.25 171.25 46.25c0 0 75 45 118.75 121.25 0 0 43.75 77.5 45 176.25 0 0-1.25 95-45 172.5 0 0-45 76.25-121.25 121.25 0 0-75 46.25-168.75 46.25 0 0-95-1.25-171.25-45 0 0-76.25-45-121.25-121.25 0 0-43.75-77.5-45-173.75 0 0 1.25-97.5 45-175 0 0 43.75-77.5 120-122.5 0 0 76.25-45 172.5-46.25zM137.5 60v777.5h266.25v130H0V60h137.5"/></symbol>

  <symbol id="prada" xmlns="http://www.w3.org/2000/svg" viewBox="1.59 0.78 265.58 41.22"><path fill-rule="evenodd" d="m1.6 1.44 4 4.37v31.97l-2.97 4.19 18.22.02-3.28-3.85-.35-11.51 17.57.1c5.33-1.72 10.8-5.37 11.06-12.74-.08-7.15-4.6-11.73-9.85-12.65zm14.97 2.04v20.55l13.48.09c3.07-2.39 5.4-4.21 5.3-9.95-.04-4.67-1.06-8.74-5.58-10.69h-13.2zM54.3 1.2l4.01 4.38v31.97l-2.97 4.19 18.22.02-3.29-3.85-.34-11.51h.07l18.83 15.5 15.62-.13-14.26-11.9h-11.9l-4.2-3.45 13.4.07c5.33-1.71 10.8-5.36 11.07-12.73-.08-7.15-4.6-11.74-9.85-12.65zm14.98 2.05v20.54l13.48.1c3.07-2.39 5.39-4.22 5.3-9.95-.05-4.67-1.07-8.75-5.58-10.69zm50.2-2.1h15.72l20.45 36.63c.88 2.83 3.53 2.48 5.3 3.72h-19.8l2.97-.9-.19-2.72-5.1-7.9-17.4.09-3.71 7.62c-.12.87-1.09 1.53-.37 2.6l1.4 1.3-8.56-.18 3.72-1.11 14.03-28.54V9.8L122 2.17zm3.06 26.31 7.22-13.2 7.51 13.13zM225.7 1.24h15.7l20.46 36.62c.88 2.83 3.53 2.48 5.3 3.72h-19.8l2.97-.9-.18-2.72-5.12-7.9-17.38.09-3.72 7.62c-.12.87-1.08 1.53-.37 2.6l1.4 1.3-8.56-.18 3.72-1.11 14.04-28.54V9.88l-5.93-7.63zm3.05 26.3 7.22-13.2 7.52 13.13zM166.36.78l28 .15c9 2.03 14.74 7.35 16.52 16.62l-.08 7.23c-1.64 8.26-7.02 13.96-16.52 16.84l-28.06.08v-.88c4.26-.3 4.6-.78 4.61-3.22V4.65c-.05-1.8-.42-2.93-4.54-3.05zm15.92 2.82-.03 35.64c3.69.01 6.9.35 8.7-.54 4.1-1.81 6-4.59 6.18-7.2l-.1-21.04c0-3.37-3.79-5.74-5.97-6.36-1.56-.56-4.68-.59-8.78-.5z"/></symbol>

  <symbol id="calvin-klein" xmlns="http://www.w3.org/2000/svg" viewBox="0 0 797 150"><path d="M36.6 75c0 22.6 16.2 39.4 37.4 39.4 19.7 0 29.7-12.4 32.6-18.2h11.2c-2.9 9.4-16.2 28.8-43.8 28.8-27.9 0-49.1-21.2-49.1-50 0-28.5 21.5-50 49.1-50s41.2 19.1 44.1 28.8h-11.5c-3.5-6.2-13.2-18.5-32.6-18.5-21.2 0-37.4 16.8-37.4 39.7zm140.3 18.8h-40.6l-11.2 29.1h-11.2l37.4-96.5h10.9l37.4 96.8h-11.5l-11.2-29.4zm-3.8-9.7-16.5-43.2-16.5 43.2h33zm80.5 39.1h-48.2V26.5h11.5v86.2H254l-.4 10.5zm31.5 0h-10.6l-36.2-96.8h12.1l29.4 81.2 29.4-81.2h11.5l-35.6 96.8zm54.1 0H328V26.5h11.2v96.7zM366 45.3v77.9h-10.6V26.5H366l53.8 78.2V26.5h10.6v96.8h-9.7l-54.7-78zm130.6 33.5-12.4 13.8v30.6H473V26.5h11.2V78l45.3-51.5H543L504.2 70l38.8 52.9h-12.9l-33.5-44.1zm101.2 44.4h-48.2V26.5H561v86.2h37.1v10.6h-.3v-.1zm7-96.7h51.5v10.3H616v32.1h39.1v10.3H616v33.5h40.3V123h-51.5V26.5zm76.5 96.7h-11.2V26.5h11.2v96.7zm26.5-77.9v77.9h-10.6V26.5h10.6l53.8 78.2V26.5h10.6v96.8h-9.7l-54.7-78z"/></symbol>

  <symbol id="denim" xmlns="http://www.w3.org/2000/svg" viewBox="0 0 23.04 3.27"><path d="M23.04 3.25h-.7V.69h-.53l-.92 2.56h-1.33L18.58.69h-.51v2.56h-.67V0h1.64l1 2.57h.39L21.4 0h1.64zM15.98 0h.68v3.25h-.68zm-1.4 0h.7v3.25h-1.44c-.8-.8-1.53-1.7-2.3-2.56h-.45v2.56h-.66V0h1.47l2.24 2.57h.44V0zM9.71 2.6v.66H5.37V0h4.34v.69H6.1v.64h3.6v.66H6.1v.6h3.6zM3.3 0a1.58 1.58 0 0 1 1.42 1c.2.41.2.83 0 1.27-.42.8-.9 1-1.6 1H0V1.35h.67v1.19h2.74c.33 0 .7-.4.75-.8.05-.4-.12-.78-.44-.95 0 0-.2-.13-.43-.13H0V0h3.31z"/></symbol>

  <symbol id="gucci" xmlns="http://www.w3.org/2000/svg" viewBox="-1563.61 61.87 3721.49 809.01"><path d="m1807.49 298.32-6.95 2.31q-40.57-88.08-115.9-140.24-74.18-52.15-186.6-52.15-62.6 0-119.38 26.65-56.8 25.5-99.68 73.02-41.72 46.36-67.22 112.42-25.5 66.07-25.5 146.04t25.5 146.03q25.5 66.07 67.22 113.59 42.89 46.36 99.68 71.86 56.79 25.5 119.38 25.5 111.26 0 180.8-34.78 70.7-35.93 119.38-108.94l6.95 2.3-2.3 74.18q-26.66 27.82-61.43 49.84-34.77 20.86-75.34 35.93-39.4 13.9-82.29 20.86-42.88 8.12-85.76 8.12-89.25 0-170.38-28.97-81.13-28.98-142.56-81.13-61.42-53.32-97.35-127.5-35.93-75.33-35.93-166.9t35.93-165.73q35.93-75.34 97.35-128.65 61.43-53.31 142.56-81.13 81.13-28.98 170.37-28.98 42.89 0 85.77 6.96 42.88 6.95 82.3 22.02 40.56 13.9 75.33 35.93 34.77 20.86 61.42 48.68zm-2554 221.38q-12.74 5.78-24.34 15.07-11.6 9.26-11.6 25.5v142.55Q-838.07 782.8-925 826.84q-86.93 44.04-192.4 44.04-89.24 0-170.37-28.97-81.13-28.98-142.56-81.13-61.43-53.32-97.36-127.5-35.92-75.33-35.92-166.9 0-91.55 35.92-165.73 35.93-75.34 97.36-128.65t142.56-81.13q81.13-28.98 170.37-28.98 42.89 0 85.77 6.96 42.88 6.95 82.29 22.02 40.56 13.9 75.33 35.93 34.77 20.86 61.43 48.68l4.65 122.85-6.96 2.31q-40.56-88.08-115.9-140.24-74.18-52.16-186.6-52.16-62.59 0-119.38 26.66-56.79 25.5-99.67 73.02-41.73 46.36-67.22 112.42-25.5 66.07-25.5 146.04 0 78.81 24.34 144.87 25.5 66.07 67.22 113.59 42.88 46.36 99.67 73.01 56.8 25.5 120.54 25.5 120.54 0 206.3-46.36V560.26q0-16.22-12.74-25.5-11.6-9.27-23.18-15.08l1.06-5.78q5.79 1.06 20.86 2.3 15.08 1.07 31.3 2.32h99.68q13.9-1.06 26.65-2.31 12.75-1.06 19.7-2.31zM92.97 86.21q-11.6 5.8-23.18 15.08-11.6 9.26-12.74 34.77-1.06 27.81-2.3 70.7 0 41.72-1.07 95.04 0 53.31-1.06 115.9v129.8q-1.06 75.34-18.55 128.66-17.39 53.31-46.36 89.24-27.81 35.93-62.59 56.8-33.6 20.85-67.22 31.28-32.45 11.6-61.42 13.91-28.98 3.48-45.2 3.48-66.07 0-127.5-17.39-61.43-16.21-107.79-53.31-46.36-37.09-74.17-96.2Q-586 644.88-586 560.27V308.76q0-55.63-1.06-99.67 0-45.2-1.06-73.02-1.06-25.5-12.74-34.77-11.6-9.27-23.18-15.08l1.06-5.78q5.79 1.06 18.55 2.3 13.91 1.07 27.82 2.32 15.07 0 28.98 1.06h41.72q13.9-1.06 28.97-1.06 15.08-1.06 27.82-2.31 13.9-1.06 19.7-2.31l1.06 5.78q-12.75 5.8-24.34 15.08-10.43 9.26-11.6 34.77-1.06 27.81-2.31 73.02v351.17q0 126.34 59.1 186.6 59.12 60.27 175.02 60.27 33.6 0 76.5-8.12 42.88-9.26 79.96-37.09 38.25-27.81 63.75-78.8 26.66-51 26.66-135.61 0-91.56-1.06-156.47 0-66.06-1.06-112.42 0-47.52-1.06-81.13-1.06-33.61-2.31-61.43-1.06-25.5-12.75-34.77-11.6-9.26-23.18-15.07l1.06-5.79Q-13.23 82.74 3 85.07q16.22 1.06 30.13 1.06 12.75 0 28.98-1.06 17.38-2.3 30.13-4.64zM934 298.32l-6.96 2.31q-40.56-88.08-115.9-140.24-74.17-52.15-186.6-52.15-62.58 0-119.38 26.65-56.79 25.5-99.67 73.02-41.72 46.36-67.22 112.42-25.5 66.07-25.5 146.04t25.5 146.03q25.5 66.07 67.22 113.59 42.88 46.36 99.67 71.86 56.8 25.5 119.38 25.5 111.27 0 180.8-34.78 70.7-35.93 119.38-108.94l6.96 2.3-2.31 74.18q-26.66 27.82-61.43 49.84-34.77 20.86-75.34 35.93-39.4 13.9-82.29 20.86-42.88 8.12-85.76 8.12-89.25 0-170.37-28.97-81.14-28.98-142.56-81.14-61.43-53.3-97.36-127.49-35.93-75.33-35.93-166.9t35.93-165.73q35.93-75.34 97.36-128.65 61.42-53.31 142.55-81.13 81.13-28.98 170.38-28.98 42.88 0 85.77 6.96 42.88 6.95 82.28 22.02 40.57 13.9 75.34 35.93 34.77 20.86 61.43 48.68zm1222.83 552.85q-5.79-1.06-19.7-2.31-12.74 0-27.81-1.06-15.08 0-28.98-1.06h-69.53q-13.91 1.06-27.82 2.3-12.74 1.07-19.7 2.32l-1.06-4.65q11.6-5.78 23.18-15.07 11.6-9.26 12.74-34.77 1.06-27.82 1.06-57.95 1.06-30.13 1.06-68.38V261.4q0-38.25-1.06-67.22 0-30.14-1.06-57.95-1.06-25.5-12.74-34.77-11.6-10.43-23.18-16.22l1.06-4.65q6.96 2.31 19.7 3.48 13.9 0 27.82 1.06 15.07 1.06 28.97 1.06h40.56q13.9-1.06 28.98-1.06 15.07-1.06 27.81-2.3 13.91-1.07 19.7-2.32l1.06 4.65q-12.74 5.78-24.34 16.21-10.43 9.27-11.6 34.77-1.06 27.82-2.3 57.95v544.74q1.05 30.13 2.3 57.95 1.06 25.5 11.6 34.77 11.6 9.26 24.34 15.07z"/></symbol>

  <symbol id="christian-dior" xmlns="http://www.w3.org/2000/svg" viewBox="-0.16 0 467.82 81.18"><path d="M417.98 43.02c10.26 0 19.44 4.5 19.44 18 0 11.16-11.34 18.18-17.82 18.18-12.06 0-19.26-8.82-19.26-18.18 0-10.8 7.38-18 17.64-18zm-.72 1.8c-6.12 0-10.44 7.2-9.54 16.02.9 8.82 6.47 16.02 12.6 16.02 6.3 0 10.62-7.2 9.72-16.02-.9-8.82-6.48-16.02-12.78-16.02zM108.02 78.66v-1.08c3.6 0 6.66-.54 6.66-3.06V50.04c0-.54 0-1.44-1.08-1.44l-6.13 1.44v-.72l13.86-5.58h.55v9.72c3.6-3.96 7.73-9.36 10.43-9.36s3.96 1.8 3.96 3.6c.19 2.16-1.26 4.14-3.6 4.14-1.26.18-2.52-.9-3.41-1.8-.9-.9-2.7 0-3.79 1.08-1.98 2.34-3.24 3.78-3.6 6.66v16.74c0 3.06 2.7 3.06 7.74 3.06v1.08h-21.6zm331.2 0v-1.08c3.77 0 6.83-.54 6.83-3.06V50.04c0-.54 0-1.44-1.26-1.44l-6.12 1.44v-.72l13.87-5.58h.54v9.72c3.6-3.96 7.74-9.36 10.43-9.36 2.7 0 3.96 1.8 4.15 3.6 0 2.16-1.62 4.32-3.78 4.14-1.44 0-2.52-.9-3.42-1.8-.72-.9-2.7-.18-3.78 1.08-1.98 2.16-3.6 3.6-3.6 6.66v16.74c0 3.06 2.7 3.06 7.74 3.06v1.08h-21.6zM8.12 68.04C1.1 58.68-.16 49.5.02 37.98 1.1 24.12 7.4 11.16 20.54 4.86 25.58 2.34 32.78.72 39.98.9c3.6 0 7.02.36 10.08 1.44 1.62.54 3.42 1.26 5.22 1.44.72.18 1.26.18 1.62-.36.54-.72.9-1.8 1.08-2.52h1.44l5.94 25.02-.54-.18C61.76 18 59.24 11.52 51.86 6.12c-2.7-1.98-5.58-3.06-9.36-3.6-9.18-1.08-19.62 5.76-24.12 13.32-3.78 6.3-5.58 14.22-5.76 22.14 0 16.38 7.56 37.62 27.18 38.16 8.28.18 20.16-4.68 27.18-13.86l.54.54c-2.16 4.86-10.26 11.88-12.78 13.14-5.76 3.78-11.88 5.22-21.06 5.22-10.44 0-19.44-4.86-25.56-13.14zm158.94 10.98c-1.8 0-7.02-1.26-8.64-2.52l-1.08-11.34h.9c.36 3.24 1.26 5.22 2.7 8.28 1.08 2.52 4.68 4.14 7.92 4.14 3.78 0 7.2-2.16 7.2-7.2 0-3.6-3.42-5.4-7.02-7.2-3.96-2.34-8.28-4.68-8.28-10.26 0-6.12 4.86-9.9 9.72-9.9 3.06 0 5.04 0 7.2.72.9.18 1.44 1.26 1.8-.18h1.08l1.08 10.98h-.9a22 22 0 0 0-2.34-6.84c-1.08-1.8-2.16-3.24-4.5-3.42-5.4-.72-8.28 2.52-8.1 5.94.36 3.96 5.04 6.12 7.92 7.92 5.22 3.24 9.36 5.58 8.64 12.6-.72 7.56-9.18 8.28-15.3 8.28zm28.62 0c-3.42 0-5.4-3.06-5.4-8.28V50.58c0-1.62 0-4.68-1.98-4.68h-3.96v-.54l5.94-1.44v-5.94l6.66-5.58v11.52h10.08v1.98h-10.08v24.48c0 5.22.17 5.94 2.87 5.94 3.07.18 4.5-.36 7.2-2.34v.54c-2.7 2.7-6.11 4.5-11.33 4.5zm-132.66-.36H84.8V77.4c-3.06 0-5.76.36-5.76-6.66v-18c1.98-2.52 5.76-5.58 9.36-5.58 3.42.18 5.58 1.8 5.58 4.68v20.34c0 5.4-2.52 5.4-5.94 5.4v1.08h18.18v-1.08c-3.78 0-5.94 0-5.94-5.04V51.48c0-5.4-4.5-8.1-9.54-7.92-3.06.18-5.58 1.8-8.28 4.14a39.77 39.77 0 0 1-2.88 2.7c-.55.36-.55 0-.55-.54V0h-.71L65.9 4.86v.9l3.06-.9c3.41-.9 3.41 2.34 3.41 4.68v61.2c0 6.66-3.96 6.84-9.35 6.84zm184.86-4.68c-2.52 1.62-6.84 5.04-12.24 5.04-4.5 0-7.74-2.7-7.74-7.38 0-1.98.72-3.96 2.34-4.86 5.76-4.14 11.88-6.48 17.64-8.82v-9c0-2.88-1.44-5.04-4.32-5.04-3.06-.18-5.58 1.98-5.58 5.04 0 1.08.36 1.98.18 3.06-.54 2.16-1.98 2.88-3.78 3.06-1.44 0-3.06-1.26-3.06-3.42 0-5.76 7.2-8.82 12.06-8.82 2.16 0 4.32.54 6.48 1.26 3.6 2.16 5.04 3.96 5.04 8.46v21.42c0 4.32 4.5 4.32 6.3 1.08h.54c-.9 1.98-4.86 3.96-7.38 3.96-3.24 0-6.3-1.26-6.48-5.04zm-11.34-3.78c.18 3.96 2.52 5.58 5.4 5.4 1.8-.18 3.78-1.26 5.4-3.24.54-.9.54-2.34.54-3.96v-8.46c-6.48 1.62-11.7 5.04-11.34 10.26zm-101.52 8.46h20.34v-1.08c-3.96 0-5.76-.9-5.76-5.76V43.74h-1.08l-10.44 4.14v.72c3.42-.18 4.86-1.08 4.86 2.52V72c0 4.86-2.34 5.58-7.92 5.58v1.08zm70.92 0h20.34v-1.08c-4.14 0-5.94-.9-5.94-5.76V43.74h-1.08l-10.44 4.14v.72c3.42-.18 5.04-1.08 5.04 2.52V72c0 4.86-2.34 5.58-7.92 5.58v1.08zm170.82 0v-1.08c5.76 0 7.92-.72 7.92-5.58V51.12c0-3.6-1.44-2.7-4.86-2.52v-.72l10.44-4.14h1.08v28.08c0 4.86 1.8 5.76 5.76 5.76v1.08zm-72.72 0h34.2c22.5 0 39.06-9.9 39.06-36.54 0-37.44-26.46-36.54-54.36-36.54h-23.4v1.8c8.64 0 14.04 0 14.04 5.58v56.7c0 7.02-3.78 7.02-9.54 7.02v1.98zM146.36 25.92c1.98 0 3.77 1.62 3.77 3.78s-1.8 3.96-3.77 3.96c-2.17 0-3.96-1.8-3.96-3.96s1.8-3.78 3.96-3.78zm70.74 0c2.16 0 3.96 1.62 3.96 3.78s-1.8 3.96-3.96 3.96-3.96-1.8-3.96-3.96 1.8-3.78 3.96-3.78zm171 0c2.16 0 3.78 1.62 3.78 3.78s-1.62 3.96-3.78 3.96c-2.16 0-3.96-1.8-3.96-3.96s1.8-3.78 3.96-3.78zM274.52 51.84c3.24-3.06 7.56-8.28 12.06-8.1 6.12 0 9.36 2.7 9.36 9.18v21.6c0 3.06 1.44 3.06 6.48 3.06v1.08h-18v-1.08c3.05 0 4.86 0 4.86-3.24l.17-21.42c0-3.96-1.98-5.22-4.13-5.22-3.6.36-8.47 4.5-10.8 6.84v19.98c0 3.06 1.43 3.06 6.3 3.06v1.08h-17.83v-1.08c3.25 0 4.87 0 4.87-3.24v-24.3c0-.54 0-1.8-1.62-1.44l-3.96.72v-.9l11.52-4.68h.72v8.1zm50.22-37.8c0-6.66 3.41-6.66 6.47-6.66 25.2 0 33.66 5.58 33.66 34.74 0 28.62-8.82 34.56-33.66 34.56-3.06 0-6.47 0-6.47-6.48z"/></symbol>
</svg>